<?xml version="1.0" standalone="no"?>
<!DOCTYPE svg PUBLIC "-//W3C//DTD SVG 20010904//EN"
 "http://www.w3.org/TR/2001/REC-SVG-20010904/DTD/svg10.dtd">
<svg version="1.0" xmlns="http://www.w3.org/2000/svg"
 width="198.000000pt" height="111.000000pt" viewBox="0 0 198.000000 111.000000"
 preserveAspectRatio="xMidYMid meet">
<metadata>
Created by potrace 1.10, written by Peter Selinger 2001-2011
</metadata>
<g transform="translate(0.000000,111.000000) scale(0.100000,-0.100000)"
fill="#000000" stroke="none">
<path d="M1129 1086 c-13 -13 -462 -36 -726 -37 -267 0 -305 -2 -323 -17 -59
-48 -71 -373 -21 -571 25 -100 56 -146 119 -173 43 -19 59 -20 266 -14 242 8
310 14 555 52 306 47 350 83 352 286 2 224 -49 405 -126 449 -32 18 -88 33
-96 25z m71 -61 c33 -17 74 -94 92 -175 17 -81 17 -340 -1 -374 -32 -58 -119
-86 -406 -126 -150 -21 -466 -39 -454 -26 4 4 83 16 175 26 210 24 330 44 459
76 113 29 145 45 169 85 15 26 15 31 2 58 -13 24 -29 33 -91 52 -71 21 -105
42 -91 56 3 4 29 1 57 -5 79 -19 105 -16 129 16 19 23 21 36 17 87 -10 115
-27 167 -68 208 l-39 39 -90 -7 c-50 -3 -97 -8 -103 -10 -27 -10 -339 -44
-422 -47 -49 -2 -149 1 -221 6 l-131 8 -25 -30 c-67 -80 -63 -438 6 -543 34
-51 79 -69 173 -70 101 -1 68 -17 -37 -18 -84 -1 -131 16 -163 60 -52 71 -89
337 -69 489 18 132 21 137 100 146 37 4 143 4 237 1 143 -5 572 13 650 27 51
9 119 5 145 -9z m-36 -61 c25 -24 49 -122 50 -199 l1 -70 -30 3 c-16 2 -51 10
-77 18 -54 17 -83 12 -99 -18 -16 -30 -3 -66 32 -84 40 -20 118 -44 147 -44
34 0 30 -45 -6 -64 -78 -40 -317 -86 -607 -116 -302 -31 -351 -26 -384 39 -11
21 -25 69 -32 106 -14 80 -7 277 11 348 l13 49 111 -9 c172 -13 313 -7 536 21
113 14 219 27 235 29 64 8 84 6 99 -9z"/>
<path d="M995 900 c-31 -12 -48 -38 -48 -70 0 -43 28 -70 73 -70 45 0 73 27
73 71 0 49 -54 87 -98 69z m45 -56 c11 -12 10 -18 -3 -32 -16 -15 -18 -15 -34
0 -13 14 -14 20 -3 32 7 9 16 16 20 16 4 0 13 -7 20 -16z"/>
<path d="M510 185 c-14 -3 -88 -12 -164 -22 -105 -13 -144 -21 -158 -35 -24
-24 -23 -53 3 -79 20 -20 28 -21 118 -15 53 4 118 12 144 17 89 16 330 38 552
49 317 15 805 29 841 23 20 -3 35 1 44 12 23 28 -4 40 -88 41 -42 0 -345 3
-672 7 -327 3 -606 4 -620 2z m325 -46 c-27 -5 -111 -15 -185 -23 -74 -8 -197
-23 -273 -32 -106 -14 -140 -15 -149 -6 -21 21 3 29 137 46 173 22 186 23 365
23 116 0 143 -2 105 -8z"/>
</g>
</svg>
